<svg width="95" height="96" viewBox="0 0 95 96" fill="none" xmlns="http://www.w3.org/2000/svg">
<path d="M5.70488 35.4309C2.55864 37.8735 1.98635 42.4184 4.42887 45.5647L31.0021 79.794C33.4446 82.9402 37.9896 83.5125 41.1358 81.07L51.3647 73.129L68.663 75.3072L70.8411 58.0089L81.07 50.0679C84.2162 47.6254 84.7885 43.0804 82.346 39.9342L55.7728 5.7049C53.3303 2.55866 48.7853 1.98637 45.639 4.42889L5.70488 35.4309ZM76.6411 44.363L64.0504 54.1375L62.4005 67.2405L49.2976 65.5906L36.7069 75.3651L10.1337 41.1358L50.0679 10.1338L76.6411 44.363Z" fill="#34B7F1" fill-opacity="0.2"/>
<path d="M22.4819 45.2643L51.0063 23.1199L55.4352 28.8248L26.9108 50.9691L22.4819 45.2643ZM31.3397 56.674L51.3067 41.173L55.7356 46.8779L35.7685 62.3789L31.3397 56.674Z" fill="#34B7F1" fill-opacity="0.2"/>
</svg>
