<svg width="72" height="72" viewBox="0 0 72 72" fill="none" xmlns="http://www.w3.org/2000/svg">
<path d="M49.6572 3.35041C40.9167 -0.190337 31.1275 -0.113807 22.4432 3.56317C13.759 7.24015 6.89098 14.2164 3.35013 22.9571C1.5971 27.2852 0.713694 31.9162 0.750354 36.5857C0.787013 41.2551 1.74302 45.8716 3.56378 50.1716C5.38454 54.4716 8.03441 58.3708 11.3621 61.6466C14.6898 64.9224 18.6301 67.5107 22.958 69.2637C27.286 71.0167 31.9169 71.9 36.5863 71.8632C41.2557 71.8265 45.8721 70.8704 50.172 69.0495C54.4719 67.2286 58.3711 64.5786 61.647 61.2509C64.9228 57.9231 67.5111 53.9826 69.2641 49.6545C76.6363 31.456 67.8553 10.7223 49.6572 3.35041ZM25.7384 62.3952C22.2712 61.0367 19.108 59.0038 16.432 56.4142C13.7559 53.8245 11.6203 50.7297 10.1488 47.3088C8.67734 43.888 7.89919 40.2091 7.85948 36.4854C7.81976 32.7617 8.51925 29.067 9.91745 25.6155C11.3156 22.164 13.3847 19.0242 16.0049 16.378C18.6251 13.7318 21.7442 11.6317 25.1817 10.1994C28.6192 8.76719 32.3066 8.03121 36.0305 8.03414C39.7544 8.03706 43.4407 8.77883 46.8758 10.2165C50.3431 11.575 53.5063 13.6079 56.1823 16.1975C58.8583 18.7872 60.9939 21.882 62.4654 25.3029C63.9369 28.7237 64.7151 32.4026 64.7548 36.1263C64.7945 39.85 64.095 43.5446 62.6968 46.9962C61.2986 50.4477 59.2295 53.5875 56.6094 56.2337C53.9892 58.8799 50.87 60.98 47.4326 62.4122C43.9951 63.8445 40.3076 64.5805 36.5838 64.5776C32.8599 64.5746 29.1736 63.8329 25.7384 62.3952ZM28.0752 31.974C30.9177 33.1255 34.3101 31.3706 35.6549 28.0508C36.9997 24.7311 35.7817 21.1085 32.9392 19.957C30.0967 18.8055 26.7009 20.5591 25.3561 23.8788C24.0112 27.1986 25.2293 30.8212 28.0752 31.974ZM45.2365 38.926C48.0824 40.0788 51.4748 38.3239 52.8196 35.0042C54.1645 31.6844 52.9464 28.0618 50.104 26.9103C47.2615 25.7589 43.8642 27.5158 42.5208 30.8322C41.1774 34.1485 42.394 37.7745 45.2365 38.926ZM49.3509 46.931C48.8688 46.3799 48.19 46.0395 47.46 45.9828C46.73 45.9261 46.0068 46.1577 45.4454 46.6278C45.2369 46.8071 40.2468 50.8881 31.7915 47.4629C23.3773 44.0544 22.5978 37.692 22.5634 37.3624C22.5017 36.6278 22.1507 35.9478 21.5876 35.472C21.0246 34.9962 20.2955 34.7636 19.5609 34.8253C18.8263 34.887 18.1463 35.238 17.6705 35.8011C17.1947 36.3642 16.9621 37.0933 17.0238 37.8279C17.0578 38.2373 17.951 47.8508 29.7054 52.6124C41.4632 57.3755 48.7899 51.0878 49.0958 50.8161C49.6433 50.3338 49.9775 49.6542 50.0253 48.9262C50.0731 48.1981 49.8306 47.4807 49.3509 46.931Z" fill="#9234F1" fill-opacity="0.2"/>
</svg>
